<?xml version="1.0" encoding="UTF-8"?><svg id="_イヤー_2" xmlns="http://www.w3.org/2000/svg" width="440.63" height="50.23" viewBox="0 0 440.63 50.23"><g id="_イヤー_1-2"><g><path d="M5.1,15.07l-2.64-.84c-.92-.32-1.56-.69-1.92-1.11-.36-.42-.54-1.01-.54-1.77,0-.6,.22-1.11,.66-1.53,.44-.42,1.08-.63,1.92-.63H26.4c.72,0,1.31,.08,1.77,.24,.46,.16,.85,.4,1.17,.72,.32,.32,.54,.72,.66,1.2,.12,.48,.18,1.3,.18,2.46v2.46c0,.48-.02,1.02-.06,1.62-.04,.84-.28,1.45-.72,1.83-.44,.38-1.02,.57-1.74,.57-.68,0-1.25-.19-1.71-.57-.46-.38-.83-.97-1.11-1.77l-1.02-3H13.5v12h7.38l.6-1.68c.28-.76,.62-1.29,1.02-1.59,.4-.3,.92-.45,1.56-.45,.72,0,1.28,.21,1.68,.63,.4,.42,.6,1.09,.6,2.01v7.56c0,.92-.2,1.59-.6,2.01-.4,.42-.96,.63-1.68,.63-.68,0-1.2-.16-1.56-.48-.36-.32-.7-.88-1.02-1.68l-.6-1.56h-7.38v11.28l3.3,.96c.88,.24,1.49,.54,1.83,.9,.34,.36,.51,.88,.51,1.56,0,.72-.26,1.32-.78,1.8-.52,.48-1.24,.72-2.16,.72H2.94c-.92,0-1.64-.24-2.16-.72-.52-.48-.78-1.08-.78-1.8,0-.68,.16-1.19,.48-1.53,.32-.34,.92-.65,1.8-.93l2.82-.9V15.07Z"/><path d="M67.86,25.69l-2.76-.6c-.8-.2-1.37-.48-1.71-.84-.34-.36-.51-.88-.51-1.56,0-.72,.17-1.27,.51-1.65,.34-.38,.91-.69,1.71-.93,.84-.24,1.8-.44,2.88-.6,1.08-.16,2.12-.24,3.12-.24,1.52,0,2.58,.3,3.18,.9s.9,1.6,.9,3v1.68l.12,.06c.4-.92,.88-1.75,1.44-2.49,.56-.74,1.19-1.37,1.89-1.89,.7-.52,1.44-.92,2.22-1.2,.78-.28,1.61-.42,2.49-.42,1.04,0,1.84,.28,2.4,.84,.56,.56,.84,1.36,.84,2.4,0,.88-.09,1.65-.27,2.31-.18,.66-.42,1.21-.72,1.65-.3,.44-.63,.77-.99,.99-.36,.22-.72,.33-1.08,.33-.28,0-.53-.04-.75-.12-.22-.08-.43-.16-.63-.24-.2-.08-.41-.16-.63-.24-.22-.08-.49-.12-.81-.12-.84,0-1.66,.18-2.46,.54-.8,.36-1.54,.98-2.22,1.86v14.7l2.88,.78c.88,.24,1.48,.54,1.8,.9,.32,.36,.48,.88,.48,1.56,0,.72-.26,1.32-.78,1.8-.52,.48-1.24,.72-2.16,.72h-12.3c-.92,0-1.64-.24-2.16-.72-.52-.48-.78-1.08-.78-1.8,0-.68,.16-1.19,.48-1.53,.32-.34,.92-.65,1.8-.93l2.58-.78V25.69Z"/><path d="M94.74,25.27h-2.04c-1.84,0-2.76-.8-2.76-2.4,0-.96,.29-1.73,.87-2.31s1.41-.87,2.49-.87h1.62l1.08-4.26c.32-1.32,.79-2.28,1.41-2.88,.62-.6,1.51-.9,2.67-.9,.92,0,1.62,.23,2.1,.69,.48,.46,.72,1.13,.72,2.01v5.34h5.16c1.8,0,2.7,.8,2.7,2.4,0,1-.28,1.78-.84,2.34-.56,.56-1.4,.84-2.52,.84h-4.5v13.62c0,1.92,.28,3.26,.84,4.02,.56,.76,1.36,1.14,2.4,1.14,.76,0,1.36-.06,1.8-.18,.44-.12,.88-.18,1.32-.18,.56,0,1,.17,1.32,.51,.32,.34,.48,.83,.48,1.47,0,.44-.09,.85-.27,1.23-.18,.38-.43,.73-.75,1.05-.36,.36-1.09,.78-2.19,1.26-1.1,.48-2.65,.72-4.65,.72-3.08,0-5.26-.83-6.54-2.49-1.28-1.66-1.92-3.93-1.92-6.81v-15.36Z"/><path d="M119.16,25.69l-2.4-.54c-.8-.2-1.37-.49-1.71-.87-.34-.38-.51-.91-.51-1.59,0-.72,.17-1.27,.51-1.65,.34-.38,.91-.69,1.71-.93,.72-.2,1.63-.39,2.73-.57,1.1-.18,2.15-.27,3.15-.27,1.8,0,3.03,.33,3.69,.99s.99,1.89,.99,3.69v13.08c0,2.6,.46,4.42,1.38,5.46,.92,1.04,2.28,1.56,4.08,1.56,.92,0,1.74-.14,2.46-.42,.72-.28,1.32-.6,1.8-.96,.56-.44,1.04-.92,1.44-1.44v-15.54l-2.76-.6c-.8-.2-1.37-.48-1.71-.84-.34-.36-.51-.88-.51-1.56,0-.72,.17-1.27,.51-1.65,.34-.38,.91-.69,1.71-.93,.84-.24,1.8-.44,2.88-.6,1.08-.16,2.2-.24,3.36-.24,1.8,0,3.03,.33,3.69,.99,.66,.66,.99,1.89,.99,3.69v19.74l2.46,.42c.8,.16,1.36,.42,1.68,.78,.32,.36,.48,.88,.48,1.56s-.18,1.21-.54,1.59c-.36,.38-.92,.71-1.68,.99-.8,.28-1.68,.51-2.64,.69-.96,.18-1.98,.27-3.06,.27-1.4,0-2.42-.33-3.06-.99-.64-.66-.96-1.63-.96-2.91v-.78l-.12-.06c-.48,.92-1.14,1.74-1.98,2.46-.72,.64-1.68,1.21-2.88,1.71-1.2,.5-2.7,.75-4.5,.75-3.44,0-6.08-.94-7.92-2.82-1.84-1.88-2.76-4.68-2.76-8.4v-13.26Z"/><path d="M158.1,25.69l-2.76-.6c-.8-.2-1.37-.48-1.71-.84-.34-.36-.51-.88-.51-1.56,0-.72,.17-1.27,.51-1.65,.34-.38,.91-.69,1.71-.93,.84-.24,1.8-.44,2.88-.6,1.08-.16,2.12-.24,3.12-.24,1.52,0,2.58,.3,3.18,.9s.9,1.6,.9,3v.78l.12,.06c.48-.92,1.14-1.74,1.98-2.46,.72-.6,1.67-1.16,2.85-1.68,1.18-.52,2.67-.78,4.47-.78,3.48,0,6.16,.97,8.04,2.91,1.88,1.94,2.82,4.81,2.82,8.61v13.2l2.28,.72c.84,.28,1.42,.6,1.74,.96,.32,.36,.48,.88,.48,1.56,0,.72-.26,1.32-.78,1.8-.52,.48-1.24,.72-2.16,.72h-11.16c-.92,0-1.64-.24-2.16-.72-.52-.48-.78-1.08-.78-1.8,0-.68,.16-1.2,.48-1.56,.32-.36,.9-.68,1.74-.96l2.16-.72v-11.28c0-2.68-.48-4.57-1.44-5.67-.96-1.1-2.36-1.65-4.2-1.65-.92,0-1.73,.15-2.43,.45-.7,.3-1.29,.63-1.77,.99-.56,.44-1.04,.9-1.44,1.38v15.78l2.16,.72c.84,.28,1.42,.6,1.74,.96,.32,.36,.48,.88,.48,1.56,0,.72-.26,1.32-.78,1.8-.52,.48-1.24,.72-2.16,.72h-11.52c-.92,0-1.64-.24-2.16-.72-.52-.48-.78-1.08-.78-1.8,0-.68,.16-1.19,.48-1.53,.32-.34,.92-.65,1.8-.93l2.58-.78V25.69Z"/><path d="M198.96,35.95c.28,2.72,1.17,4.79,2.67,6.21s3.61,2.13,6.33,2.13c.92,0,1.71-.06,2.37-.18s1.24-.24,1.74-.36c.5-.12,.94-.24,1.32-.36,.38-.12,.75-.18,1.11-.18,.64,0,1.14,.19,1.5,.57,.36,.38,.54,.91,.54,1.59,0,.4-.07,.76-.21,1.08-.14,.32-.37,.64-.69,.96-.68,.68-1.85,1.32-3.51,1.92-1.66,.6-3.81,.9-6.45,.9-2.36,0-4.47-.33-6.33-.99-1.86-.66-3.42-1.62-4.68-2.88-1.26-1.26-2.22-2.81-2.88-4.65-.66-1.84-.99-3.94-.99-6.3,0-2.56,.37-4.85,1.11-6.87,.74-2.02,1.77-3.73,3.09-5.13,1.32-1.4,2.9-2.48,4.74-3.24,1.84-.76,3.88-1.14,6.12-1.14,3.76,0,6.69,1.06,8.79,3.18,2.1,2.12,3.15,5.18,3.15,9.18,0,1.52-.36,2.66-1.08,3.42-.72,.76-1.74,1.14-3.06,1.14h-14.7Zm10.86-4.62c-.08-2.36-.57-4.06-1.47-5.1-.9-1.04-2.07-1.56-3.51-1.56-1.56,0-2.84,.58-3.84,1.74-1,1.16-1.64,2.8-1.92,4.92h10.74Z"/><path d="M244.89,13.81c.36-.96,.74-1.75,1.14-2.37,.4-.62,.86-1.12,1.38-1.5,.52-.38,1.11-.65,1.77-.81,.66-.16,1.41-.24,2.25-.24s1.59,.08,2.25,.24c.66,.16,1.25,.43,1.77,.81,.52,.38,.98,.88,1.38,1.5,.4,.62,.78,1.41,1.14,2.37l10.8,29.88,1.68,.72c.84,.36,1.42,.72,1.74,1.08,.32,.36,.48,.88,.48,1.56,0,.72-.26,1.32-.78,1.8-.52,.48-1.24,.72-2.16,.72h-10.92c-.92,0-1.64-.24-2.16-.72-.52-.48-.78-1.08-.78-1.8,0-.68,.18-1.19,.54-1.53s.96-.67,1.8-.99l1.8-.72-1.74-5.16h-15.12l-1.8,5.16,1.8,.72c.84,.32,1.44,.65,1.8,.99s.54,.85,.54,1.53c0,.72-.26,1.32-.78,1.8-.52,.48-1.24,.72-2.16,.72h-9.48c-.92,0-1.64-.24-2.16-.72-.52-.48-.78-1.08-.78-1.8,0-.68,.16-1.2,.48-1.56,.32-.36,.9-.72,1.74-1.08l1.68-.72,10.86-29.88Zm11.64,19.56l-3.72-10.62c-.32-.8-.59-1.6-.81-2.4-.22-.8-.43-1.52-.63-2.16-.2-.72-.4-1.42-.6-2.1h-.12c-.2,.68-.4,1.38-.6,2.1-.2,.64-.43,1.35-.69,2.13-.26,.78-.53,1.59-.81,2.43l-3.66,10.62h11.64Z"/><path d="M293.34,12.43l-2.76-.6c-.8-.2-1.37-.48-1.71-.84-.34-.36-.51-.88-.51-1.56,0-.72,.17-1.27,.51-1.65,.34-.38,.91-.69,1.71-.93,.84-.24,1.8-.44,2.88-.6,1.08-.16,2.2-.24,3.36-.24,1.8,0,3.03,.33,3.69,.99,.66,.66,.99,1.89,.99,3.69V43.69l2.46,.42c.8,.16,1.36,.42,1.68,.78,.32,.36,.48,.88,.48,1.56s-.18,1.21-.54,1.59c-.36,.38-.92,.71-1.68,.99-.8,.28-1.68,.51-2.64,.69-.96,.18-1.98,.27-3.06,.27-1.4,0-2.42-.33-3.06-.99-.64-.66-.96-1.63-.96-2.91v-.78l-.12-.06c-.48,.92-1.14,1.74-1.98,2.46-.72,.64-1.67,1.21-2.85,1.71s-2.67,.75-4.47,.75c-3.52,0-6.34-1.17-8.46-3.51-2.12-2.34-3.18-5.95-3.18-10.83,0-2.64,.38-5,1.14-7.08,.76-2.08,1.86-3.84,3.3-5.28,1.44-1.44,3.21-2.54,5.31-3.3,2.1-.76,4.49-1.14,7.17-1.14,.48,0,.91,.02,1.29,.06,.38,.04,.73,.08,1.05,.12,.36,.08,.68,.14,.96,.18l.12-.12c-.04-.44-.07-.89-.09-1.35-.02-.46-.03-1.03-.03-1.71v-3.78Zm0,13.5c-.32-.2-.7-.38-1.14-.54-.4-.16-.88-.3-1.44-.42-.56-.12-1.2-.18-1.92-.18-2.24,0-4.02,.77-5.34,2.31-1.32,1.54-1.98,4.13-1.98,7.77,0,3.28,.59,5.63,1.77,7.05,1.18,1.42,2.65,2.13,4.41,2.13,.92,0,1.73-.14,2.43-.42,.7-.28,1.29-.6,1.77-.96,.56-.44,1.04-.92,1.44-1.44v-15.3Z"/><path d="M308.31,25.45l-1.02-.42c-.92-.36-1.56-.8-1.92-1.32-.36-.52-.54-1.14-.54-1.86,0-.64,.22-1.16,.66-1.56,.44-.4,1.08-.6,1.92-.6h10.32c.84,0,1.48,.2,1.92,.6,.44,.4,.66,.92,.66,1.56,0,.68-.18,1.24-.54,1.68-.36,.44-1.02,.88-1.98,1.32l-1.02,.48,4.38,11.58c.28,.76,.52,1.47,.72,2.13s.4,1.25,.6,1.77c.16,.6,.34,1.16,.54,1.68h.12c.16-.52,.32-1.08,.48-1.68,.16-.52,.35-1.12,.57-1.8,.22-.68,.49-1.42,.81-2.22l4.32-11.46-1.02-.48c-.96-.44-1.62-.88-1.98-1.32-.36-.44-.54-1-.54-1.68,0-.64,.22-1.16,.66-1.56,.44-.4,1.08-.6,1.92-.6h8.76c.84,0,1.48,.2,1.92,.6,.44,.4,.66,.92,.66,1.56,0,.72-.18,1.34-.54,1.86-.36,.52-1,.96-1.92,1.32l-1.02,.42-7.98,19.5c-.4,.96-.79,1.75-1.17,2.37-.38,.62-.79,1.12-1.23,1.5-.44,.38-.95,.65-1.53,.81-.58,.16-1.27,.24-2.07,.24s-1.49-.08-2.07-.24c-.58-.16-1.09-.43-1.53-.81-.44-.38-.85-.88-1.23-1.5-.38-.62-.77-1.41-1.17-2.37l-7.92-19.5Z"/><path d="M347.51,25.69l-2.76-.6c-.8-.2-1.37-.48-1.71-.84-.34-.36-.51-.88-.51-1.56,0-.72,.17-1.27,.51-1.65,.34-.38,.91-.69,1.71-.93,.84-.24,1.8-.44,2.88-.6,1.08-.16,2.2-.24,3.36-.24,1.8,0,3.03,.33,3.69,.99,.66,.66,.99,1.89,.99,3.69v19.86l2.46,.72c.76,.2,1.29,.48,1.59,.84,.3,.36,.45,.84,.45,1.44,0,.8-.27,1.46-.81,1.98-.54,.52-1.27,.78-2.19,.78h-11.58c-.92,0-1.64-.24-2.16-.72-.52-.48-.78-1.08-.78-1.8,0-.68,.16-1.19,.48-1.53s.92-.65,1.8-.93l2.58-.78V25.69Z"/><path d="M368.75,44.11c.36,.16,.76,.3,1.2,.42,.4,.08,.89,.16,1.47,.24,.58,.08,1.23,.12,1.95,.12,1.8,0,3.05-.29,3.75-.87,.7-.58,1.05-1.33,1.05-2.25s-.38-1.58-1.14-2.1c-.76-.52-1.71-.99-2.85-1.41-1.14-.42-2.38-.86-3.72-1.32-1.34-.46-2.58-1.05-3.72-1.77-1.14-.72-2.09-1.63-2.85-2.73-.76-1.1-1.14-2.53-1.14-4.29,0-1.24,.26-2.42,.78-3.54,.52-1.12,1.32-2.09,2.39-2.91,1.08-.82,2.43-1.47,4.07-1.95,1.63-.48,3.57-.72,5.8-.72,2.39,0,4.21,.2,5.44,.6,1.24,.4,2.05,.8,2.45,1.2,.32,.32,.55,.7,.69,1.14,.14,.44,.21,1.1,.21,1.98v1.56c0,.4-.02,.82-.06,1.26-.08,.76-.33,1.32-.75,1.68-.42,.36-.97,.54-1.65,.54s-1.21-.18-1.59-.54c-.38-.36-.71-.92-.99-1.68l-.6-1.74c-.36-.08-.76-.18-1.2-.3-.36-.08-.79-.16-1.29-.24-.5-.08-1.05-.12-1.65-.12-1.68,0-2.8,.24-3.36,.72-.56,.48-.84,1.12-.84,1.92s.38,1.45,1.14,1.95c.76,.5,1.71,.95,2.85,1.35,1.14,.4,2.38,.83,3.72,1.29,1.34,.46,2.58,1.06,3.72,1.8,1.14,.74,2.09,1.68,2.85,2.82,.76,1.14,1.14,2.61,1.14,4.41,0,1.32-.28,2.56-.84,3.72-.56,1.16-1.4,2.17-2.51,3.03-1.12,.86-2.54,1.55-4.28,2.07s-3.76,.78-6.07,.78c-2.55,0-4.49-.22-5.8-.66s-2.17-.86-2.57-1.26c-.32-.32-.55-.7-.69-1.14-.14-.44-.21-1.1-.21-1.98v-1.68c0-.4,.02-.82,.06-1.26,.08-.76,.33-1.32,.75-1.68,.42-.36,.97-.54,1.65-.54s1.21,.18,1.59,.54c.38,.36,.71,.92,.99,1.68l.66,1.86Z"/><path d="M396.77,35.95c.28,2.72,1.17,4.79,2.67,6.21s3.61,2.13,6.33,2.13c.92,0,1.71-.06,2.37-.18s1.24-.24,1.74-.36c.5-.12,.94-.24,1.32-.36,.38-.12,.75-.18,1.11-.18,.64,0,1.14,.19,1.5,.57,.36,.38,.54,.91,.54,1.59,0,.4-.07,.76-.21,1.08-.14,.32-.37,.64-.69,.96-.68,.68-1.85,1.32-3.51,1.92-1.66,.6-3.81,.9-6.45,.9-2.36,0-4.47-.33-6.33-.99-1.86-.66-3.42-1.62-4.68-2.88-1.26-1.26-2.22-2.81-2.88-4.65-.66-1.84-.99-3.94-.99-6.3,0-2.56,.37-4.85,1.11-6.87,.74-2.02,1.77-3.73,3.09-5.13,1.32-1.4,2.9-2.48,4.74-3.24,1.84-.76,3.88-1.14,6.12-1.14,3.76,0,6.69,1.06,8.79,3.18,2.1,2.12,3.15,5.18,3.15,9.18,0,1.52-.36,2.66-1.08,3.42-.72,.76-1.74,1.14-3.06,1.14h-14.7Zm10.86-4.62c-.08-2.36-.57-4.06-1.47-5.1-.9-1.04-2.07-1.56-3.51-1.56-1.56,0-2.84,.58-3.84,1.74-1,1.16-1.64,2.8-1.92,4.92h10.74Z"/><path d="M421.91,25.69l-2.76-.6c-.8-.2-1.37-.48-1.71-.84-.34-.36-.51-.88-.51-1.56,0-.72,.17-1.27,.51-1.65,.34-.38,.91-.69,1.71-.93,.84-.24,1.8-.44,2.88-.6,1.08-.16,2.12-.24,3.12-.24,1.52,0,2.58,.3,3.18,.9,.6,.6,.9,1.6,.9,3v1.68l.12,.06c.4-.92,.88-1.75,1.44-2.49,.56-.74,1.19-1.37,1.89-1.89,.7-.52,1.44-.92,2.22-1.2,.78-.28,1.61-.42,2.49-.42,1.04,0,1.84,.28,2.4,.84,.56,.56,.84,1.36,.84,2.4,0,.88-.09,1.65-.27,2.31-.18,.66-.42,1.21-.72,1.65-.3,.44-.63,.77-.99,.99-.36,.22-.72,.33-1.08,.33-.28,0-.53-.04-.75-.12-.22-.08-.43-.16-.63-.24-.2-.08-.41-.16-.63-.24-.22-.08-.49-.12-.81-.12-.84,0-1.66,.18-2.46,.54-.8,.36-1.54,.98-2.22,1.86v14.7l2.88,.78c.88,.24,1.48,.54,1.8,.9,.32,.36,.48,.88,.48,1.56,0,.72-.26,1.32-.78,1.8-.52,.48-1.24,.72-2.16,.72h-12.3c-.92,0-1.64-.24-2.16-.72-.52-.48-.78-1.08-.78-1.8,0-.68,.16-1.19,.48-1.53s.92-.65,1.8-.93l2.58-.78V25.69Z"/><path d="M46.18,17.94c-8.84,0-16,7.16-16,16s7.16,16,16,16,16-7.16,16-16-7.16-16-16-16Zm.36,27.56c-6.48,0-11.74-5.26-11.74-11.74,0-3.82,1.83-7.22,4.66-9.36-.38,1.15-.58,2.38-.58,3.66,0,6.48,5.26,11.74,11.74,11.74,2.66,0,5.11-.89,7.08-2.38-1.54,4.69-5.95,8.08-11.15,8.08Z"/><polygon points="353.27 12.82 362.44 11.65 353.27 10.48 356.62 5.83 351.96 9.17 350.79 0 349.62 9.17 344.96 5.83 348.3 10.48 339.13 11.65 348.3 12.82 344.96 17.48 349.62 14.14 350.79 23.31 351.96 14.14 356.62 17.48 353.27 12.82"/></g></g></svg>