<?xml version="1.0" encoding="utf-8"?>
<!-- Generator: Adobe Illustrator 26.3.1, SVG Export Plug-In . SVG Version: 6.00 Build 0)  -->
<svg version="1.1" id="レイヤー_1" xmlns="http://www.w3.org/2000/svg" xmlns:xlink="http://www.w3.org/1999/xlink" x="0px"
	 y="0px" viewBox="0 0 800.1 541.4" style="enable-background:new 0 0 800.1 541.4;" xml:space="preserve">
<style type="text/css">
	.st0{fill:#EDF0FC;}
	.st1{fill:#FFFFFF;}
	.st2{fill:#2F2E41;}
	.st3{fill:#FFB8B8;}
	.st4{fill:#ACB9F0;}
	.st5{fill:#3F3D56;}
	.st6{fill:#294CDA;}
</style>
<path class="st0" d="M731.9,189.4c-0.8,0.7-1.7,1.4-2.5,2H517.2c-1.6-0.6-3.2-1.3-4.7-2c-22.4-9.7-43.2-22.7-61.9-38.5
	c-12.4-10.5-23.8-21.3-32-31.4c-11.5-14.1-22.1-29.6-27-47.1c-4.9-17.6-3.5-37.7,7.5-52.3c3.4-4.5,7.6-8.3,12.4-11.3
	c0.8-0.5,1.6-1,2.4-1.4c13.2-7.4,29.8-9.2,44.7-5.4c21.2,5.5,38.9,20.8,51.5,38.8c12.6,18,20.8,38.6,28.8,59
	c8.2-36.4,33-69.1,66.4-85.6c33.5-16.6,75-16.4,107.8,1.6c10.3,5.7,19.6,13,27.6,21.7c0.8,0.9,1.6,1.7,2.3,2.6
	c16,18.5,26,42.2,26.8,66.6C770.7,138.1,756.2,169.7,731.9,189.4z"/>
<path class="st1" d="M525.7,191.4h-3c0-0.7-0.1-1.3-0.1-2c-1-13.1-3.2-26-6.6-38.7c-7.6-29-20.6-56.3-38.3-80.5
	C460,46,437.8,25.4,412.2,9.8c-0.4-0.2-0.6-0.6-0.7-1c-0.1-0.8,0.4-1.6,1.2-1.7c0.3-0.1,0.7,0,1,0.2c0.1,0,0.1,0.1,0.2,0.1
	c14.5,8.8,28,19.3,40.1,31.1c21.8,21.2,39.3,46.4,51.7,74.1c10.9,24.3,17.6,50.3,19.8,76.9C525.6,190.1,525.6,190.8,525.7,191.4z"/>
<path class="st1" d="M742.9,40C742.9,40,742.9,40,742.9,40c-2.3,0.4-4.5,0.8-6.6,1.3c-17.9,3.7-35.4,9-52.3,15.9
	c-16.9,6.9-33.1,15.3-48.5,25c-15.4,9.7-30,20.8-43.4,33.1c-13.5,12.3-25.9,25.7-37,40.1c-8.3,10.8-15.9,22.2-22.6,34.1
	c-0.4,0.7-0.8,1.3-1.1,2h-3.4c0.4-0.7,0.7-1.3,1.1-2c8.2-14.5,17.5-28.4,28-41.3c11.6-14.4,24.4-27.7,38.3-39.8
	c13.8-12,28.7-22.8,44.4-32.3c15.8-9.5,32.3-17.6,49.5-24.2c16.7-6.4,33.9-11.2,51.5-14.5c0.5-0.1,1-0.2,1.5-0.3
	C743.9,36.8,744.7,39.6,742.9,40z"/>
<path class="st2" d="M197.7,197.4c5.3-10.1,6.2-23.2-0.4-32.5c-3.9-5.5-10.1-9.1-16.6-11.2s-13.3-2.6-20.1-3.1
	c-6.7-0.5-13.5-0.9-20.1,0.6s-12.9,5.2-16.1,11.1c-5.4,10-0.5,22.8-4.4,33.4c-3.6,9.8-14,15.5-24.1,17.8s-20.8,2.1-30.9,4.3
	s-20.5,7.9-24.2,17.7c-2.7,7-1.3,15.1,2.2,21.8s9,12,14.9,16.8c8.7,7.1,18.9,13.1,30.2,13.7c11.8,0.6,23.4-5,31.9-13.2
	s14.3-18.9,18.9-29.8c2.9-6.9,5.7-14.3,11.6-19c4.3-3.4,9.8-4.9,15.1-6.4l6-1.6c11.1-2.9,20.4-10.2,25.9-20.3
	C197.6,197.6,197.6,197.5,197.7,197.4z"/>
<polygon class="st3" points="150.1,528.7 137.8,528.7 132,481.4 150.1,481.4 "/>
<path class="st2" d="M129.1,525.2h23.6l0,0V540l0,0h-38.5l0,0l0,0C114.2,531.8,120.8,525.2,129.1,525.2z"/>
<polygon class="st3" points="252.1,528.7 239.8,528.7 234,481.4 252.1,481.4 "/>
<path class="st2" d="M231.1,525.2h23.6l0,0V540l0,0h-38.5l0,0l0,0C216.2,531.8,222.8,525.2,231.1,525.2z"/>
<path class="st2" d="M173.6,491.1c-0.2,0-0.3,0-0.5,0l-49.9-5.3c-2.6-0.3-4.4-2.6-4.2-5.2c0-0.2,0.1-0.4,0.1-0.6l44.2-168
	c0.4-1.7,1.8-3.1,3.5-3.5l41-11.4c1.7-0.4,3.4,0.2,4.5,1.5c26.3,29.7,46.2,95.6,61.2,178.6c0.5,2.5-1.2,5-3.8,5.5
	c-0.1,0-0.2,0-0.2,0l-40.9,5.2c-2.4,0.3-4.6-1.3-5.2-3.6l-19.9-88.6c-0.4-2-2.4-3.2-4.4-2.8c-1.4,0.3-2.5,1.4-2.8,2.8l-18.3,91.7
	C177.8,489.5,175.9,491.1,173.6,491.1z"/>
<circle class="st3" cx="166.1" cy="195.9" r="24.6"/>
<path class="st4" d="M165.4,312.5c-2.1,0-4-1.4-4.5-3.5l-14.8-55.5c-2.2-8.3,2.1-16.9,10.1-20c11.9-4.6,23.2-6.4,33.7-5.1l0,0
	c9.3,1.1,20.8,56.1,20,57.3l3.7,11c0.8,2.5-0.5,5.1-3,5.9c-0.2,0.1-0.3,0.1-0.5,0.1l-43.7,9.6C166.1,312.4,165.7,312.5,165.4,312.5z
	"/>
<path class="st3" d="M178.6,369.2c0.8-4.1-1.9-8.1-6-8.9c-0.4-0.1-0.9-0.1-1.3-0.1l-8.5-25.7l-8.7,11l9.4,22.7
	c0.2,4.2,3.8,7.5,8,7.2C175,375.3,178,372.7,178.6,369.2L178.6,369.2z"/>
<path class="st3" d="M288.1,307.5c-1.9-3.7-6.5-5.2-10.3-3.3c-0.4,0.2-0.8,0.4-1.1,0.7l-22.6-14.9l0,14.1l21.4,12
	c2.8,3.2,7.6,3.5,10.8,0.7C289,314.5,289.7,310.7,288.1,307.5L288.1,307.5z"/>
<path class="st4" d="M160.8,357.4c-2,0-3.8-1.3-4.5-3.2l-20-42.2c-0.8-2.5-1.2-5.1-1.2-7.7l6-54.9c0-6.7,5.4-12.1,12.1-12.1
	c6.1,0,11.2,4.6,12,10.6l-9.2,62.6l14.6,38.4c0.5,2.1-0.5,4.3-2.5,5.2l-5.3,2.6C162.2,357.2,161.5,357.4,160.8,357.4z"/>
<path class="st4" d="M267.4,313.1c-0.7,0-1.5-0.2-2.1-0.5l-39.7-20c-2.3-1.2-4.5-2.7-6.3-4.6l-38.7-38.9c-4.7-4.7-4.7-12.4,0-17.1
	c4.3-4.3,11.2-4.7,16-0.9l42,46.6l33.3,21.1c1.8,1.2,2.6,3.4,1.9,5.5l-1.9,5.6C271.2,311.8,269.4,313.1,267.4,313.1L267.4,313.1z"/>
<path class="st2" d="M138.1,183.2c4.2,5.5,10.2,9.2,16.9,10.6c6.8,1.4,13.9,0.4,20.1-2.9c4.9-2.7,8.9-6.7,12.8-10.6
	c1.6-1.6,3.3-3.5,3.3-5.8c-0.1-3.5-4.3-5.4-7.9-6.1c-11.8-2.5-24.1-1.1-35,3.9c-4.9,2.3-10,6.4-9.2,11.5"/>
<path class="st5" d="M783.1,189.4h-482c-9.4,0-17,7.6-17,17v186c0,9.4,7.6,17,17,17h482c9.4,0,17-7.6,17-17v-186
	C800.1,197.1,792.5,189.5,783.1,189.4z M798.1,392.4c0,8.3-6.7,15-15,15h-482c-8.3,0-15-6.7-15-15v-186c0-8.3,6.7-15,15-15h482
	c8.3,0,15,6.7,15,15V392.4z"/>
<path class="st5" d="M388.6,357.4c-32,0-58-26-58-58s26-58,58-58s58,26,58,58C446.6,331.5,420.7,357.4,388.6,357.4z M388.6,243.4
	c-30.9,0-56,25.1-56,56s25.1,56,56,56s56-25.1,56-56C444.6,268.5,419.5,243.5,388.6,243.4z"/>
<path class="st6" d="M740.1,262.4h-231c-6.7,0-12.2,5.3-12.5,12c0,0.2,0,0.3,0,0.5c0,6.9,5.6,12.5,12.5,12.5h231
	c6.9,0,12.5-5.6,12.5-12.5S747,262.4,740.1,262.4z"/>
<path class="st6" d="M740.1,311.4h-231c-6.7,0-12.2,5.3-12.5,12c0,0.2,0,0.3,0,0.5c0,6.9,5.6,12.5,12.5,12.5h231
	c6.9,0,12.5-5.6,12.5-12.5S747,311.4,740.1,311.4z"/>
<path class="st6" d="M382.2,324.8c-1.6,0-3.2-0.5-4.5-1.5l-0.1-0.1l-16.9-12.9c-3.3-2.5-3.9-7.2-1.4-10.5s7.2-3.9,10.5-1.4l0,0
	l10.9,8.4l25.9-33.7c2.5-3.3,7.2-3.9,10.5-1.4c0,0,0,0,0,0l-0.2,0.2l0.2-0.2c3.3,2.5,3.9,7.2,1.4,10.5l-30.4,39.7
	C386.7,323.7,384.5,324.8,382.2,324.8z"/>
<path class="st5" d="M382,541.4H1c-0.6,0-1-0.4-1-1s0.4-1,1-1h381c0.6,0,1,0.4,1,1S382.6,541.4,382,541.4z"/>
<path class="st1" d="M683.3,144.4c-20.9-2.9-42.1-2.4-62.8,1.4c-20.7,3.8-40.6,10.8-59.2,20.7c-10.4,5.6-20.3,12.1-29.5,19.5
	c-1.5,1.2,0.6,3.3,2.1,2.1c16.2-12.9,34.4-23.1,53.8-30.2c19.3-7.1,39.5-11.2,60.1-12.2c11.6-0.5,23.3,0,34.8,1.6
	c0.8,0.2,1.6-0.3,1.8-1C684.5,145.4,684.1,144.6,683.3,144.4z"/>
</svg>
