<?xml version="1.0" encoding="utf-8"?>
<!-- Generator: Adobe Illustrator 26.3.1, SVG Export Plug-In . SVG Version: 6.00 Build 0)  -->
<svg version="1.1" id="レイヤー_1" xmlns="http://www.w3.org/2000/svg" xmlns:xlink="http://www.w3.org/1999/xlink" x="0px"
	 y="0px" viewBox="0 0 856.4 559.9" style="enable-background:new 0 0 856.4 559.9;" xml:space="preserve">
<style type="text/css">
	.st0{fill:#ACB9F0;}
	.st1{fill:#294CDA;}
	.st2{fill:#132671;}
	.st3{fill:#FFFFFF;}
	.st4{fill:#FEB8B8;}
	.st5{fill:#D7DEF8;}
</style>
<g id="Group_47" transform="translate(-171.808 -222.403)">
	<g id="Group_43" transform="translate(-222.485 -67.725)">
		<rect id="Rectangle_113" x="805.3" y="327.1" class="st0" width="94.6" height="1.8"/>
		<rect id="Rectangle_114" x="431.2" y="327.1" class="st0" width="300.2" height="1.8"/>
		<circle id="Ellipse_115" class="st1" cx="431.2" cy="328" r="37"/>
		<circle id="Ellipse_116" class="st2" cx="599.8" cy="328" r="37"/>
		<path id="Path_748-305" class="st0" d="M768.4,365.8c-20.9,0-37.9-16.9-37.9-37.9c0-20.9,16.9-37.9,37.9-37.9
			c20.9,0,37.9,16.9,37.9,37.9S789.3,365.8,768.4,365.8C768.4,365.8,768.4,365.8,768.4,365.8z M768.4,291.9
			c-19.9,0-36.1,16.1-36.1,36.1s16.1,36.1,36.1,36.1c19.9,0,36.1-16.1,36.1-36.1l0,0C804.4,308.1,788.3,291.9,768.4,291.9z"/>
		<path id="Path_749-306" class="st0" d="M936.9,365.8c-20.9,0-37.9-16.9-37.9-37.9c0-20.9,16.9-37.9,37.9-37.9
			c20.9,0,37.9,16.9,37.9,37.9S957.8,365.8,936.9,365.8L936.9,365.8z M936.9,291.9c-19.9,0-36.1,16.1-36.1,36.1
			c0,19.9,16.1,36.1,36.1,36.1c19.9,0,36.1-16.1,36.1-36.1C973,308.1,956.8,291.9,936.9,291.9L936.9,291.9z"/>
		<path id="Path_395-307" class="st3" d="M428.4,339c-0.6,0-1.3-0.2-1.8-0.6l0,0l-6.8-5.2c-1.3-1-1.6-2.9-0.6-4.2
			c1-1.3,2.9-1.6,4.2-0.6l4.4,3.4l10.4-13.5c1-1.3,2.9-1.6,4.2-0.6l0,0l-0.1,0.1l0.1-0.1c1.3,1,1.6,2.9,0.6,4.2l-12.2,15.9
			C430.2,338.6,429.3,339,428.4,339L428.4,339z"/>
	</g>
	<g id="Group_24" transform="translate(808.073 222.403)">
		<path id="Path_552-308" class="st4" d="M20.3,196c0.7,0.3,1.4,0.7,2,1.1l63.2-27l2.3-16.6l25.2-0.2l-1.5,38.2l-83.4,22
			c-0.2,0.6-0.4,1.1-0.6,1.7c-3.4,7.2-12,10.3-19.2,6.9c-7.2-3.4-10.3-12-6.9-19.2C4.7,195.9,13.1,192.7,20.3,196L20.3,196z"/>
		<path id="Path_553-309" class="st4" d="M122.1,541.7h-17.3l-8.2-66.6h25.5L122.1,541.7z"/>
		<path id="Path_554-310" class="st2" d="M92.5,536.8h33.3v21H71.6C71.6,546.2,81,536.8,92.5,536.8L92.5,536.8L92.5,536.8z"/>
		<path id="Path_555-311" class="st4" d="M189.3,536.8l-17.2,1.7l-14.7-65.5l25.4-2.5L189.3,536.8z"/>
		<path id="Path_556-312" class="st2" d="M159.3,534.8l33.1-3.3l2.1,20.9l-54,5.3C139.4,546.2,147.8,536,159.3,534.8L159.3,534.8z"
			/>
		<ellipse id="Ellipse_84" class="st4" cx="126.9" cy="48.3" rx="34.6" ry="34.6"/>
		<path id="Path_557-313" class="st2" d="M101,528.3c-3.1,0-5.7-2.2-6.2-5.2c-8.9-49.6-38.1-211.8-38.8-216.3c0-0.1,0-0.2,0-0.3
			v-12.1c0-0.4,0.1-0.9,0.4-1.2l3.9-5.4c0.4-0.5,1-0.9,1.6-0.9c22-1,94-4.1,97.5,0.3l0,0c3.5,4.4,2.3,17.6,2,20.2l0,0.3l32.4,207
			c0.5,3.4-1.8,6.7-5.2,7.2l-20.2,3.3c-3.1,0.5-6.1-1.4-7.1-4.4c-6.3-20-27.2-87.2-34.5-113.2c-0.1-0.4-0.5-0.6-0.8-0.5
			c-0.3,0.1-0.6,0.4-0.5,0.7c0.4,24.8,1.2,88,1.5,109.9l0,2.4c0,3.3-2.5,6.1-5.8,6.4l-19.5,1.8C101.4,528.3,101.2,528.3,101,528.3z"
			/>
		<path id="Path_99-314" class="st0" d="M105,96.5c-6,3.6-9.6,10.2-11.7,16.9c-3.8,12.4-6.1,25.3-6.9,38.2l-2.2,38.9l-27.1,103
			c23.5,19.9,37.1,15.4,68.7-0.9S161,298,161,298l6.3-87.7l9-95.8c-2-2.4-4.3-4.7-6.8-6.6c-16.9-13.2-39-17.8-59.8-12.7L105,96.5z"
			/>
		<path id="Path_558-315" class="st4" d="M96.2,216.8c0.7,0.3,1.4,0.6,2.1,1l62.4-31.3l1-16.9l25.8-1.8l1.4,38.6L105.5,234
			c-1.9,8-9.8,12.9-17.8,11c-8-1.9-12.9-9.8-11-17.8c1.9-8,9.8-12.9,17.8-11C95,216.4,95.6,216.5,96.2,216.8L96.2,216.8z"/>
		<path id="Path_101-316" class="st0" d="M175.9,115c15.4,5.4,18.1,64.2,18.1,64.2c-18.1-9.9-39.8,6.3-39.8,6.3s-4.5-15.4-9.9-35.2
			c-3.3-11.4-0.6-23.6,7.2-32.5C151.5,117.7,160.6,109.6,175.9,115z"/>
		<path id="Path_102-317" class="st2" d="M157.9,57.4c-4.3-3.4-10.2,2.8-10.2,2.8l-3.4-31c0,0-21.5,2.6-35.3-0.9S93,40.9,93,40.9
			c-0.7-6.4-0.9-12.9-0.4-19.4c0.9-7.8,12.1-15.5,31.9-20.7S154.6,18,154.6,18C168.4,24.9,162.2,60.9,157.9,57.4z"/>
	</g>
	<rect id="Rectangle_110" x="290.8" y="780.2" class="st0" width="737.4" height="2.2"/>
	<path id="Path_438-318" class="st0" d="M361.9,741.5c6.4,2.3,13.5,1,18.8-3.3c6.6-5.5,8.7-14.6,10.3-23.1l5-24.9l-10.4,7.2
		c-7.5,5.2-15.1,10.5-20.3,17.9s-7.4,17.7-3.3,25.7"/>
	<path id="Path_439-319" class="st5" d="M363.6,773.4c-1.3-9.5-2.7-19.2-1.7-28.8c0.8-8.6,3.4-16.9,8.7-23.8
		c2.8-3.6,6.3-6.7,10.2-9.2c1-0.6,2,1,0.9,1.6c-6.7,4.3-12,10.5-14.9,18c-3.2,8.2-3.8,17.2-3.2,26c0.3,5.3,1.1,10.6,1.8,15.8
		c0.1,0.5-0.2,1-0.6,1.1C364.2,774.2,363.7,773.9,363.6,773.4L363.6,773.4z"/>
	<path id="Path_442-320" class="st0" d="M373,758.1c2.8,4.2,7.5,6.6,12.5,6.4c6.3-0.3,11.6-4.7,16.3-8.9l14-12.4l-9.3-0.4
		c-6.7-0.3-13.5-0.6-19.9,1.4s-12.2,7-13.4,13.6"/>
	<path id="Path_443-321" class="st5" d="M359.8,778.9c6.3-11.2,13.6-23.6,26.7-27.5c3.6-1.1,7.4-1.5,11.2-1.2
		c1.2,0.1,0.9,1.9-0.3,1.8c-6.3-0.5-12.7,1.1-17.9,4.7c-5.1,3.4-9,8.2-12.3,13.3c-2,3.1-3.9,6.3-5.7,9.6
		C361,780.7,359.3,779.9,359.8,778.9z"/>
	<g id="Group_46" transform="translate(2 7)">
		<path id="Path_138-322" class="st0" d="M802.2,450H486.5c-3.2,0-5.8-2.6-5.8-5.8v-78.3c0-3.2,2.6-5.8,5.8-5.8h315.7
			c3.2,0,5.8,2.6,5.8,5.8v78.3C808.1,447.4,805.5,450,802.2,450z M486.5,362.3c-1.9,0-3.5,1.6-3.5,3.5v78.3c0,1.9,1.6,3.5,3.5,3.5
			h315.7c1.9,0,3.5-1.6,3.5-3.5v-78.3c0-1.9-1.6-3.5-3.5-3.5L486.5,362.3z"/>
		<path id="Path_139-323" class="st0" d="M590.6,386.1c-2.2,0-4,1.8-4,4c0,2.2,1.8,4,4,4c0,0,0,0,0,0h187.1c2.2,0,4-1.8,4-4
			c0-2.2-1.8-4-4-4H590.6z"/>
		<path id="Path_140-324" class="st0" d="M590.6,409.9c-2.2,0-4,1.8-4,4c0,2.2,1.8,4,4,4c0,0,0,0,0,0h80.5c2.2,0,4-1.8,4-4
			c0-2.2-1.8-4-4-4c0,0,0,0,0,0H590.6z"/>
		<g id="Group_45">
			<circle id="Ellipse_18" class="st0" cx="535.8" cy="401.8" r="23.8"/>
			<path id="Path_395-2-325" class="st1" d="M532.1,415c-0.8,0-1.6-0.3-2.2-0.7l0,0l-8.4-6.4c-1.6-1.2-1.9-3.6-0.7-5.2
				s3.6-1.9,5.2-0.7l5.4,4.2l12.8-16.7c1.2-1.6,3.6-1.9,5.2-0.7l0,0l-0.1,0.1l0.1-0.1c1.6,1.2,1.9,3.6,0.7,5.2l-15,19.6
				C534.3,414.5,533.2,415.1,532.1,415L532.1,415z"/>
		</g>
	</g>
</g>
</svg>
