<?xml version="1.0" encoding="utf-8"?>
<!-- Generator: Adobe Illustrator 26.3.1, SVG Export Plug-In . SVG Version: 6.00 Build 0)  -->
<svg version="1.1" id="レイヤー_1" xmlns="http://www.w3.org/2000/svg" xmlns:xlink="http://www.w3.org/1999/xlink" x="0px"
	 y="0px" viewBox="0 0 813 658.8" style="enable-background:new 0 0 813 658.8;" xml:space="preserve">
<style type="text/css">
	.st0{fill:#EADCEE;}
	.st1{fill:#FFFFFF;}
	.st2{fill:#FFB9B9;}
	.st3{fill:#823C96;}
	.st4{fill:#2F2E41;}
</style>
<path class="st0" d="M808.2,35.5H4.8c-2.5,0-4.5-2-4.5-4.5V4.5C0.3,2,2.3,0,4.8,0h803.4c2.5,0,4.5,2,4.5,4.5V31
	C812.7,33.5,810.7,35.5,808.2,35.5z"/>
<circle id="b6c858f0-1926-4bcd-807b-9efaf247b9cf" class="st1" cx="26.4" cy="16.4" r="6.4"/>
<circle id="b369121d-4d8f-4c1b-b23a-4a491aa6d487" class="st1" cx="50.7" cy="16.4" r="6.4"/>
<circle id="a3a83b48-e804-404e-aa0f-53d13c62451a" class="st1" cx="74.9" cy="16.4" r="6.4"/>
<path class="st0" d="M802.1,658.8H444.8c-6,0-10.9-4.9-10.9-10.9V395.4c0-6,4.9-10.9,10.9-10.9h357.3c6,0,10.9,4.9,10.9,10.9v252.6
	C813,654,808.1,658.8,802.1,658.8z"/>
<path class="st1" d="M787.3,399.3H459.7c-6,0-10.9,4.9-10.9,10.9v222.8c0,6,4.9,10.9,10.9,10.9h327.6c6,0,10.9-4.9,10.9-10.9V410.2
	C798.2,404.2,793.3,399.3,787.3,399.3z"/>
<circle class="st2" cx="610.4" cy="495.4" r="44"/>
<path class="st3" d="M737,602.6c-3.3-15.6-14.9-28.1-30.2-32.5l0,0c-1.4-0.7-2.9-1.2-4.5-1.5l-52.9-10.8l-10.6-11.4l-45.1,2.9
	l-4.7,13.1l-51.8,23l0.9-0.6c-2.2,0.9-4.4,1.9-6.5,3.1l-0.3,0.1c-1.5,0.7-2.9,1.6-4.1,2.6c-13.2,9.1-21.9,23.8-22.2,40.2l-1.4,13.3
	h242L737,602.6z"/>
<path class="st4" d="M658.6,471.8c-3.6-11.2-14.1-20.7-25.9-20.4c0.9-2.8-0.7-6-3-7.7c-2.4-1.8-5.3-2.5-8.2-3.1
	c-6-1.2-12.2-2.2-18.1-0.8c-5.9,1.4-11.6,5.7-12.9,11.6c-5.4-5.1-15.4-3.7-19.2,2.7c-2,3.3-2.2,7.7-0.1,10.9
	c2.1,3.2,6.1,4.6,9.9,4.8c3.8,0.2,7.5-0.7,11.3-1.1c9-0.9,18.5,0.9,25.8,6.3c7.3,5.4,11.9,14.6,10.6,23.6c2.9-1.9,7.1-0.6,9.1,2.2
	s2.2,6.6,1.2,9.9c-0.9,3.3-2.9,6.3-4.8,9.2c-3.5,5.3-7,10.6-10.4,16l1.4,0.9c5.3,2.2,10.9-1.9,14.8-6.2c6.4-7.1,11.6-15.3,15.4-24.2
	C660,495.5,662.2,483.1,658.6,471.8z"/>
<path class="st0" d="M468.8,463.3H13.9C6.2,463.3,0,457,0,449.4V127.8c0-7.7,6.2-13.9,13.9-13.9h454.9c7.7,0,13.9,6.2,13.9,13.9
	v321.6C482.7,457,476.5,463.3,468.8,463.3z"/>
<path class="st1" d="M449.9,132.8H32.8c-7.7,0-13.9,6.2-13.9,13.9v283.7c0,7.7,6.2,13.9,13.9,13.9h417.1c7.7,0,13.9-6.2,13.9-13.9
	V146.7C463.8,139,457.6,132.8,449.9,132.8z"/>
<path class="st4" d="M301.4,266L301.4,266l-0.8,1.4c6.8-16.9,0.6-37.7-11.6-50.4c-12.2-12.7-29.2-18.5-45.9-20.8
	c-12.4-1.7-25.3-1.7-37.1,2.9c-17.1,6.6-30.1,21.8-41,37.7c-5,7.3-9.9,15.5-9.4,24.6c0.5,8.4,5.5,15.5,9.5,22.7
	c4.1,7.1,7.5,16,4.6,23.8c-1.7,4.6-5.4,8-8.4,11.8s-5.5,8.9-4,13.7c1.2,3.9,4.7,6.4,8.3,7.2c3.6,0.8,7.4,0.3,11.1-0.3l95.3-14.4
	c22.2-3.4,37.4-24,34.1-46.2C305.3,274.8,303.7,270.2,301.4,266z"/>
<circle class="st2" cx="230.5" cy="278.5" r="46.6"/>
<path class="st3" d="M346.7,384c-6.1-13.5-19.2-22.4-34-23.3l-13-0.8l0,0.1v0l0,0l-33-19.9c0.8,0.9-53.7,2.9-53.7,2.9l-20.2,17.4
	l-8.5,0.5c-14.8,0.9-27.8,9.9-34,23.3l-27.5,60.3h54.9l1.3-5.5c1.4,1.7,2.7,3.4,4,5.2h191.2L346.7,384z"/>
<path class="st4" d="M274.7,235.3c-1.2-6.4-7.7-9.3-13.3-10.7c-16.1-4.1-32.9-5-49.4-2.7c-12,1.7-24.3,5.5-33,14.9
	c-6.8,7.3-10.9,17.8-11.2,28.6c-0.2,6.3,0.9,12.9,4.1,18.2c3.1,5.3,8.5,9.2,14,9l0.6,1.9c23.4-3.3,45.1-17.8,58.8-39.4
	c-2.6,9.2-7.7,17.4-14.7,23.8c15.8-6.3,29.5-16.9,39.7-30.6C272.9,244.7,275.6,240.1,274.7,235.3z"/>
<path class="st1" d="M784.4,12h-27.9c-1.1,0-2.1-0.9-2.1-2.1c0-1.1,0.9-2.1,2.1-2.1c0,0,0,0,0,0h27.9c1.1,0,2.1,0.9,2.1,2.1
	C786.5,11.1,785.6,12,784.4,12L784.4,12z"/>
<path class="st1" d="M784.4,19.8h-27.9c-1.1,0-2.1-0.9-2.1-2.1c0-1.1,0.9-2.1,2.1-2.1c0,0,0,0,0,0h27.9c1.1,0,2.1,0.9,2.1,2.1
	C786.5,18.9,785.6,19.8,784.4,19.8L784.4,19.8z"/>
<path class="st1" d="M784.4,27.6h-27.9c-1.1,0-2.1-0.9-2.1-2.1c0-1.1,0.9-2.1,2.1-2.1c0,0,0,0,0,0h27.9c1.1,0,2.1,0.9,2.1,2.1
	C786.5,26.6,785.6,27.6,784.4,27.6L784.4,27.6z"/>
</svg>
