<?xml version="1.0" encoding="utf-8"?>
<!-- Generator: Adobe Illustrator 26.3.1, SVG Export Plug-In . SVG Version: 6.00 Build 0)  -->
<svg version="1.1" id="レイヤー_1" xmlns="http://www.w3.org/2000/svg" xmlns:xlink="http://www.w3.org/1999/xlink" x="0px"
	 y="0px" viewBox="0 0 649.1 653.9" style="enable-background:new 0 0 649.1 653.9;" xml:space="preserve">
<style type="text/css">
	.st0{fill:#FFB6B6;}
	.st1{fill:#2D1834;}
	.st2{fill:#3F3D56;}
	.st3{fill:#E0CAE6;}
	.st4{fill:#FFFFFF;}
	.st5{fill:#823C96;}
	.st6{fill:#D6B9DE;}
	.st7{fill:#F0F0F0;}
	.st8{fill:#CACACA;}
</style>
<polygon class="st0" points="60.3,432.3 72.3,438.1 100.3,394.6 82.6,386.1 "/>
<path class="st1" d="M53.8,444.6l36.9,17.8l0.2-0.5c3.8-7.9,0.5-17.5-7.4-21.3l0,0l-4.3-8.4l-15-1l-3.2-1.6L53.8,444.6z"/>
<polygon class="st0" points="149.5,448.5 162.8,448.5 169.2,397.2 149.5,397.2 "/>
<path class="st1" d="M149.1,462.4l40.9,0v-0.5c0-8.8-7.1-15.9-15.9-15.9h0l-7.5-5.7l-14,5.7l-3.6,0L149.1,462.4z"/>
<path class="st1" d="M162.7,210.4L178,315.6l1.3,23.6l-8,73.8l3.2,7.1l-9.1,5.6H147l-1-77.9l-13.8-65.3l-2.1,74l-3,5.7
	c-11,25.1-25.9,33.3-36.4,52l-18.5-10l0.4-7.5c-3.7-1.9,5.6-7.4,6.5-11.4l1.6-7.3l10.8-22.3l0.4-7.9l-2.9-53.4l1.4-72l24.2-18.5
	L162.7,210.4z"/>
<circle class="st0" cx="139.5" cy="37.2" r="24"/>
<path class="st2" d="M142.8,229.8c-31.6,0-55.3-11.9-55.7-12.1l-0.3-0.1l0.1-0.3c0.8-3,1.7-8,0.2-8.7c-0.3-0.1-0.6-0.4-0.6-0.7
	c-0.1-0.6,0.5-1.1,1.3-1.9c1.6-1.5,3.8-3.5,2.5-6.7c-2.3-5.7,4.1-34.9,4.5-36.7L92.2,116c-1-18.3,10.9-34.8,28.6-39.5l0.1,0l0.1,0
	c0.9,0.1,1.8-3,2.5-5.2c1.1-3.3,1.8-5.3,2.9-5.2c9.2,0.6,15.3,1,19.4,1.2c7.7,0.5,9.1,9.9,9.3,11.4c17.1,10.4,25.6,30.6,21,50.1
	l-3.9,16.6l-3.4,8l1.1,15.7c5.3,4.4,3.8,13.4,3.5,14.9c5,5.2,1.9,11.4,1.2,12.7c2.6,3.2,3.5,7.5,2.2,11.5l4.6,15.1l-0.4,0.1
	C168.8,227.7,155.9,229.8,142.8,229.8z"/>
<path class="st0" d="M291.4,72.3c-3.2-4.1-9-4.8-13.1-1.7c-0.4,0.3-0.8,0.7-1.2,1.1l-75.9,0.4l-21.6,10.4l-2.8,11.9l34.8-1.5
	l66.5-7.6c4.1,3.2,10,2.5,13.2-1.5C294.1,80.5,294.1,75.7,291.4,72.3L291.4,72.3z"/>
<path class="st2" d="M206.2,97.3l-29.5,14l-27.4-11.5l0-0.2c-1.1-8.3,3-16.4,10.4-20.4c5.7-3.2,11.9-5.3,18.4-6.4
	c18.1-2.7,21.8-3.7,21.8-3.7l0.4-0.1L206.2,97.3z"/>
<path class="st1" d="M119.2,52.3c-0.3,0-0.6,0-0.9-0.1c-1.1-0.5-2-1.3-2.6-2.3c-4.3-6.1-6.3-14.3-6.1-24.2c0.1-4.2,0.6-9.6,3.5-13.9
	c2.5-3.6,7.5-6.5,12.2-5c-0.1-1.9,0.9-3.7,2.5-4.7c1.8-0.9,3.8-1.4,5.8-1.5c4.8-0.4,9.7-0.9,14.5,0c5.4,1,9.8,3.8,12.1,7.6l0,0.1
	l0.5,2.3c0.2,1.2,1.4,1.9,2.5,1.7c0.1,0,0.2-0.1,0.3-0.1c1-0.4,2.1,0.1,2.5,1.1c0.1,0.3,0.2,0.6,0.1,1l-0.1,0.9l1.4-0.3
	c1.1-0.2,2.1,0.5,2.3,1.6c0.1,0.3,0,0.7-0.1,1l-0.4,1c0.6,0,1.1,0.2,1.5,0.7c0.6,0.6,0.7,1.5,0.3,2.2c-1.5,2.6-3.7,4.8-6.3,6.3
	c-1.4,0.8-3,1.5-4.6,1.8c-10.5,2.3-21.3,2.6-31.8,1c0.6,2.1,0.9,4.3,0.7,6.4c-0.2,2.5-1.8,4.7-4.1,5.7c-0.5,0.2-1,0.3-1.5,0.4
	c-0.5,0.1-1,0.2-1.4,0.3c-2.2,0.8-3.3,3.2-2.5,5.3c0.3,0.7,0.7,1.3,1.3,1.8l1.1-1.1l-0.3,1.4c-0.1,0.5-0.5,1-1,1.3
	C120.1,52.2,119.7,52.3,119.2,52.3z"/>
<ellipse class="st3" cx="279.8" cy="209.8" rx="137" ry="134.9"/>
<path class="st4" d="M393.3,209.8c0,16.2-3.5,32.2-10.4,46.8c-0.2,0.5-0.4,0.9-0.6,1.4c-10.5,21.5-27.6,39.1-48.7,50.3
	c-0.4,0.2-0.9,0.5-1.3,0.7c-16.2,8.3-34.2,12.6-52.4,12.6c-6.3,0-12.6-0.5-18.9-1.5c-0.5-0.1-1-0.2-1.5-0.3
	c-23.3-4.2-44.8-15.5-61.4-32.4c-0.3-0.4-0.7-0.7-1-1.1c-15.9-16.6-26.2-37.7-29.6-60.4c-0.1-0.5-0.1-1-0.2-1.5
	c-3.1-23.1,1.2-46.6,12.3-67.1c0.2-0.4,0.5-0.9,0.7-1.3c8.5-15.2,20.4-28.2,34.8-38.1c0.4-0.3,0.8-0.6,1.2-0.8
	c13.9-9.2,29.7-15.3,46.2-17.8c0.5-0.1,1-0.1,1.5-0.2c5.2-0.7,10.5-1.1,15.8-1.1c16.6,0,33,3.6,48.1,10.5c0.5,0.2,0.9,0.4,1.4,0.6
	c14.1,6.7,26.7,16.3,36.9,28.1c0.3,0.4,0.7,0.8,1,1.1c12.4,14.6,20.7,32.2,24.3,51v0c0.1,0.5,0.2,1,0.3,1.5
	C392.8,197.1,393.3,203.4,393.3,209.8z"/>
<path class="st5" d="M291,201.3c1.6,1.9,2.6,4.3,2.9,6.7l54.7-10.3c-2.2-11.6-7.3-22.5-14.9-31.5L291,201.3z"/>
<path class="st6" d="M350.4,198.6c-0.1-0.5-0.2-1-0.2-1.5v0c-2.2-11.9-7.5-23-15.3-32.2c-0.3-0.4-0.7-0.8-1-1.1
	c-6.3-7.2-13.9-13-22.5-17.2h0c-0.5-0.2-0.9-0.4-1.4-0.6c-12.6-5.8-26.5-7.8-40.2-5.9c-0.5,0.1-1,0.1-1.5,0.2
	c-9.9,1.6-19.4,5.2-27.8,10.7c-0.4,0.3-0.8,0.5-1.3,0.8c-9.2,6.3-16.9,14.6-22.3,24.4c-0.2,0.4-0.5,0.9-0.7,1.3
	c-6.8,12.9-9.3,27.6-7.3,42c0.1,0.5,0.1,1,0.2,1.5c2.3,13.9,8.7,26.7,18.4,36.9c0.3,0.4,0.7,0.7,1,1.1c10.2,10.3,23.4,17.3,37.7,20
	c0.5,0.1,1,0.2,1.5,0.3c15.2,2.5,30.9,0.1,44.6-6.9c0.4-0.2,0.9-0.5,1.3-0.7h0c13-7,23.6-17.8,30.1-31c0.2-0.5,0.4-0.9,0.7-1.4
	C350.7,226.6,352.6,212.4,350.4,198.6L350.4,198.6z M343.3,238.6c-0.2,0.5-0.4,0.9-0.7,1.4c-6.5,12.9-16.8,23.5-29.5,30.3
	c-0.4,0.2-0.9,0.5-1.3,0.7c-13.5,6.8-28.8,9.2-43.7,6.7c-0.5-0.1-1-0.2-1.5-0.3c-14-2.6-26.8-9.4-36.8-19.5
	c-0.4-0.4-0.7-0.7-1.1-1.1c-9.5-9.9-15.8-22.5-18-36.1c-0.1-0.5-0.2-1-0.2-1.5c-2-14.1,0.5-28.5,7.1-41.1c0.2-0.4,0.5-0.9,0.7-1.3
	c5.3-9.6,12.8-17.7,21.9-23.9c0.4-0.3,0.8-0.6,1.2-0.8c8.2-5.3,17.5-8.9,27.1-10.4c0.5-0.1,1-0.2,1.5-0.2c13.4-1.9,27,0.2,39.3,5.8
	c0.5,0.2,0.9,0.4,1.4,0.6c8.4,4.1,15.8,9.8,22,16.8c0.3,0.4,0.7,0.8,1,1.1c7.6,9,12.8,19.9,14.9,31.5c0.1,0.5,0.2,1,0.2,1.5
	C351.1,212.4,349.2,226.2,343.3,238.6L343.3,238.6z"/>
<path class="st6" d="M274.6,198.5l-1.2,0.9L240.2,153l-0.9-1.2l-24.2-33.9c0.4-0.3,0.8-0.6,1.2-0.8l24.2,33.9l0.9,1.2L274.6,198.5z"
	/>
<path class="st6" d="M268.7,204.5l-0.7,1.3l-50.3-27.6l-1.3-0.7l-36.8-20.2c0.2-0.4,0.5-0.9,0.7-1.3l36.8,20.2l1.3,0.7L268.7,204.5z
	"/>
<path class="st6" d="M268,214.1l-57.3,6.7l-1.5,0.2l-41.8,4.9c-0.1-0.5-0.1-1-0.2-1.5l41.8-4.9l1.5-0.2l57.3-6.7L268,214.1z"/>
<path class="st6" d="M271.7,219.1l-41.9,38.8l-1.1,1l-30.7,28.4c-0.3-0.4-0.7-0.7-1-1.1l30.7-28.4l1.1-1l41.9-38.8L271.7,219.1z"/>
<path class="st6" d="M329.3,109.1l-17.9,37.5h0l-0.6,1.4l-24.4,51.3l-1.4-0.6l24.4-51.3l0.6-1.4l17.9-37.5
	C328.4,108.7,328.8,108.9,329.3,109.1z"/>
<path class="st6" d="M367.2,138.4l-32.3,26.6l-1.2,1l-44.1,36.3l-1-1.2l44.1-36.3l1.2-1l32.3-26.6
	C366.5,137.6,366.9,138,367.2,138.4z"/>
<path class="st6" d="M391.7,190.8l-41.3,7.8l-1.5,0.3l-56.6,10.7l-0.3-1.5l56.6-10.7l1.5-0.3v0l41.3-7.8
	C391.6,189.9,391.6,190.3,391.7,190.8z"/>
<path class="st6" d="M382.9,256.6c-0.2,0.5-0.4,0.9-0.6,1.4l-38.2-17.3l-1.4-0.6L291,216.6l0.6-1.4l51.7,23.4l1.4,0.6L382.9,256.6z"
	/>
<path class="st6" d="M333.6,308.3c-0.4,0.2-0.9,0.5-1.3,0.7l-19.6-36.6l-0.7-1.3L285,220.9l1.3-0.7l26.9,50.1l0.7,1.3h0L333.6,308.3
	z"/>
<path class="st6" d="M277.6,222.1l-9.5,55.6l-0.3,1.5l-7,40.8c-0.5-0.1-1-0.2-1.5-0.3l7-40.9l0.3-1.5l9.5-55.6L277.6,222.1z"/>
<path class="st6" d="M278.1,197.7l-1.5,0.2l-8-56.1l-0.2-1.5l-5.8-41c0.5-0.1,1-0.1,1.5-0.2l5.8,41l0.2,1.5L278.1,197.7z"/>
<ellipse class="st2" cx="279.8" cy="209.8" rx="14.3" ry="14.1"/>
<polygon class="st0" points="574,603.5 563.3,612.4 523.7,575.4 539.5,562.2 "/>
<path class="st1" d="M583.8,614.3l-32.9,27.6l-0.3-0.4c-5.9-7.1-5-17.6,2.1-23.5l0,0l2.2-9.6l15-4.8l2.9-2.4L583.8,614.3z"/>
<polygon class="st0" points="478.4,637.7 464.4,637.7 457.8,583.8 478.4,583.8 "/>
<path class="st1" d="M478.9,652.2l-42.9,0v-0.5c0-9.2,7.5-16.7,16.7-16.7h0l7.8-6l14.6,6l3.7,0L478.9,652.2z"/>
<path class="st1" d="M513.3,379.9c3.4,4.2,1.7,18.6,1.7,18.6l0.8,89.3c14.3,11.8,25.3,60.8,25.3,60.8l13.7,25.2
	c-1.7,5.1-12.6,24.8-16,24c-1.6-0.4-21-18.4-34-45c-15-30.8-23.6-70.8-23.6-70.8s1.7,114.7,1.7,119.7s-22.8,2.5-27.8,2.5
	S424,397.7,424,397.7v-11.8l4.2-5.9C428.2,379.9,509.9,375.7,513.3,379.9z"/>
<path class="st2" d="M332.1,189.3l-10.2,4.8l11.4-2.4c0,0,8.4,0.3,8.4-3.1l13.6-7.5c0,0,11.6,6.1,15,2.7s-2.7-10.2-2.7-10.2
	s4.1-2.3,3.8-3.2s-5.8,0.5-5.8,0.5s-13-7.5-12.3,5.5l-13.6,9C339.6,185.4,332.7,185.2,332.1,189.3z"/>
<path class="st5" d="M518,409.1c-17.9,8.9-39.2,11.6-59.2,9.2c-17.3-2-20.9-21.4-36.9-28.2c5.1-14.6,5.1-33.9,4.3-39.3
	c-1.5-9.3-1.7-73.9,3.6-80.6c7-8.8,17.8-13.5,17.3-24.8l1.5,1.5c-1.9-5,1.8-10.7,6.6-13s10.5-2,15.8-1.6c4.5,0.3,9,0.6,13.5,0.8
	c-1.2,3.7-0.5,7.8,1.8,10.9c8-2.2,16.4,3.7,20,11.1c3.6,7.5,3.5,16.1,3.3,24.4c-0.2,9.6,6.9,76.8-1.7,81.1
	c4.4,1.1,10.7,24.7,6.9,22.2C516.6,384,516.2,395.4,518,409.1z"/>
<path class="st0" d="M344.1,178.2c7.3-2.1,14.9,2,17.1,9.3c0.2,0.8,0.4,1.6,0.5,2.4l75.9,66.8l-13.7,9.1l-75.4-60.4
	c-7.6,0.3-14.1-5.6-14.4-13.2C333.8,185.7,337.9,180,344.1,178.2L344.1,178.2z"/>
<path class="st5" d="M425.8,235.1c-1.7,0.1-40.9-28.5-41.9-27.2l-2.6,14.3l0,0l-7.3,9.6l0,0l15.7,16.6l4.5,3.7l2.9,3
	c-1,1.3,5.7,8.6,6,10.2c0.4,1.6,1.4,3,2.9,3.8l25.5,13.8c7.1,5.3,17.1,3.8,22.4-3.3c5.3-7.1,3.8-17.1-3.2-22.3l-3.8-3.8l-5.8-5.8
	l-10.8-10.9C429.1,235.6,427.5,235,425.8,235.1z"/>
<circle class="st0" cx="468.2" cy="197" r="27.7"/>
<path class="st1" d="M501.2,188.3c-1.5-6.1-7.3-11.4-13.5-10.8c0.8-4.7-2.4-9.4-6.6-11.7s-9.3-2.3-14-1.5c-2.7,0.5-5.4,1.1-8.1,1.9
	c-2.3,0.6-12.9-3-15.1-2.4c-1.9,0.6-6.6,7.5-8,8.8c-1.5,1.4-2.2,3.7-1.3,5.4c1,1.7,3.2,2.3,5.1,2.5c2,0.2,4.1,0.1,5.7,1.2
	c2.1,1.4,2.7,4.3,2.6,6.8c-0.1,2.5-0.7,5.1-0.2,7.6c0.5,2.5,2.5,5,5,4.8c1.9-2,5.4-1.9,7.6-0.2c2.1,1.8,3.3,4.5,3.3,7.3
	c0,2.8-0.5,5.5-1.3,8.2c-0.5,1.8-0.8,4,0.6,5.4c0.8,0.6,1.8,1,2.8,1.2c4,0.8,19-0.3,23,0.5l-0.3-0.6c2.9-5.6,6.7-10.7,9.6-16.3
	S502.7,194.4,501.2,188.3z"/>
<path class="st0" d="M543.7,416.8c-7.4-1.8-11.9-9.2-10.2-16.6c0.2-0.8,0.4-1.6,0.8-2.3l-32.6-95.7l16.4-1.1l35.3,89.9
	c6.8,3.5,9.4,11.9,5.9,18.6C556.3,415.4,549.9,418.4,543.7,416.8z"/>
<path class="st5" d="M494.1,314.8c1.5,0.7,21.3,45.1,22.8,44.5l9.4-11.1l0,0l11.1-4.7l0,0l-5.3-22.2l-2.1-5.4l-1-4.1
	c1.5-0.7-0.7-10.3-0.2-11.9c0.5-1.6,0.3-3.3-0.6-4.7L513,270.4c-3.5-8.1-13-11.8-21.1-8.3c-8.1,3.5-11.8,12.9-8.3,21l1.4,5.2
	l2.1,7.9l3.9,14.8C491.4,312.7,492.5,314,494.1,314.8z"/>
<path class="st7" d="M620.3,636.4l-7.7-12.4l-1.5,7.1c-0.3,1.2-0.5,2.5-0.8,3.8c-2.2-1.9-4.5-3.6-6.8-5.3c-7-5.1-14-10.2-21-15.3
	l2.2,12.7c1.4,7.8,2.8,15.8,6.1,23c0.4,0.8,0.8,1.6,1.2,2.4h32.5c0.3-0.7,0.4-1.5,0.5-2.2c0,0,0-0.1,0-0.2
	C625.6,645.1,622.9,640.5,620.3,636.4z"/>
<path class="st8" d="M647.9,653.6l-275.8,0.3c-0.7,0-1.2-0.5-1.2-1.2c0-0.7,0.5-1.2,1.2-1.2l275.8-0.3c0.7,0,1.2,0.5,1.2,1.2
	S648.5,653.6,647.9,653.6C647.9,653.6,647.9,653.6,647.9,653.6z"/>
<path class="st7" d="M249.4,445.9l-7.7-12.4l-1.5,7.1c-0.3,1.2-0.5,2.5-0.8,3.8c-2.2-1.9-4.5-3.6-6.8-5.3c-7-5.1-14-10.2-21-15.3
	l2.2,12.7c1.4,7.8,2.8,15.8,6.1,23c0.4,0.8,0.8,1.6,1.2,2.4h32.5c0.3-0.7,0.4-1.5,0.5-2.2c0,0,0-0.1,0-0.2
	C254.7,454.6,252,450.1,249.4,445.9z"/>
<path class="st8" d="M276.9,463.1L1.2,463.4c-0.7,0-1.2-0.5-1.2-1.2c0-0.7,0.5-1.2,1.2-1.2l275.8-0.3c0.7,0,1.2,0.5,1.2,1.2
	S277.6,463.1,276.9,463.1C276.9,463.1,276.9,463.1,276.9,463.1z"/>
<path class="st0" d="M149.4,233.2c-4.9-1.6-7.6-6.9-6-11.8c0.2-0.5,0.4-1,0.6-1.5l-25.2-71.5l2.5-23.8l10.3-6.7l10.4,33.3l15.3,65.1
	c4.4,2.7,5.7,8.5,3,12.9C158,232.9,153.5,234.6,149.4,233.2L149.4,233.2z"/>
<polygon class="st2" points="105.2,99.5 129.1,90.3 142.9,136.5 111,146.6 "/>
</svg>
