<?xml version="1.0" encoding="utf-8"?>
<!-- Generator: Adobe Illustrator 26.3.1, SVG Export Plug-In . SVG Version: 6.00 Build 0)  -->
<svg version="1.1" id="レイヤー_1" xmlns="http://www.w3.org/2000/svg" xmlns:xlink="http://www.w3.org/1999/xlink" x="0px"
	 y="0px" viewBox="0 0 888 623.1" style="enable-background:new 0 0 888 623.1;" xml:space="preserve">
<style type="text/css">
	.st0{fill:#BB83CC;}
	.st1{fill:#3F3D56;}
	.st2{fill:#CBCBCB;}
	.st3{fill:#F1F1F1;}
	.st4{fill:#6C63FF;}
	.st5{fill:#FFFFFF;}
	.st6{opacity:0.2;enable-background:new    ;}
	.st7{fill:#FFB7B7;}
	.st8{fill:#2F2E41;}
	.st9{fill:#FFB8B8;}
</style>
<circle class="st0" cx="787.2" cy="69.1" r="47.5"/>
<path class="st1" d="M609.2,194.3L572,121.2l37.3,63.9l0.3-26.2l-25.6-52.8l25.7,45.9l0.6-47l-27.8-42.3l27.9,34.9l2-85.9l0-0.4
	l0,0.4l-0.3,108.9l30.7-44.1l-30.6,53.3l1.2,52.6l0.1-1.4l35.4-46.5l-35.4,51.4l0.2,6.6l0.1,0.1l0,0.5l1.6,69.6
	c-2.3,0.1-4.7,0.1-7,0.1l0.1-5.4l-32.3-53.3l32.4,48.1L609.2,194.3z"/>
<path class="st2" d="M435.8,236l-37.2-73.1l37.3,63.9l0.3-26.2l-25.6-52.8l25.7,45.9l0.6-47l-27.8-42.3l27.9,34.9l2-85.9l0-0.4
	l0,0.4l-0.3,108.9l30.7-44.1l-30.6,53.3l1.2,52.6l0.1-1.4l35.4-46.5l-35.4,51.4l0.2,6.6l0.1,0.1l0,0.5l1.6,69.6
	c-2.3,0.1-4.7,0.1-7,0.1l0.1-5.4L402.7,246l32.4,48.1L435.8,236z"/>
<path class="st1" d="M758.4,182.9l-37.2-73.1l37.3,63.9l0.3-26.2l-25.6-52.8l25.7,45.9l0.6-47l-27.8-42.3l27.9,34.9l2-85.9l0-0.4
	l0,0.4l-0.3,108.9l30.7-44.1l-30.6,53.3l1.2,52.6l0.1-1.4l35.4-46.5l-35.4,51.4l0.2,6.6l0.1,0.1l0,0.5l1.6,69.6
	c-2.3,0.1-4.7,0.1-7,0.1l0.1-5.4l-32.3-53.3l32.4,48.1L758.4,182.9z"/>
<path class="st3" d="M117.7,434c21.7-16,44.4-30.5,68-43.4c66.1-36.5,147.4-67.7,239.8-91.8c6.4-1.7,12.8-3.3,19.2-4.9
	c13.7-3.4,27.7-6.6,41.8-9.7c3.5-0.8,7-1.5,10.5-2.3c19.7-4.1,39.8-8,60.3-11.5c0.4-0.1,0.8-0.1,1.2-0.2c4.8-0.8,9.6-1.6,14.5-2.4
	c97-15.8,202.2-24.4,312.1-24.6c0.9,0,1.8,0,2.7,0v379.9H0C0,554.2,42.8,489.7,117.7,434z"/>
<path class="st4" d="M294.2,477.3c37.8-28.1,86.3-53.3,143-74.6c6.3-2.4,12.7-4.7,19.2-6.9c0.9-0.3,1.8-0.6,2.7-1
	c8.3-2.8,16.7-5.6,25.3-8.3c14.5-4.5,29.5-8.8,44.8-12.9c11-2.9,22.2-5.7,33.6-8.3c3.7-0.9,7.3-1.7,11-2.5
	c8.4-1.9,16.9-3.6,25.4-5.4C687,340,784.9,330.2,888,330.2v292.9H203.4C203.4,570,236.4,520.2,294.2,477.3z"/>
<path class="st5" d="M276.2,607.9l1.7,0.8c5.7-11.9,12.8-23.2,20.9-33.5l-1.5-1.2C289.1,584.5,282,595.9,276.2,607.9z M324.4,544.7
	l1.3,1.4c9.2-8.5,18.8-16.6,28.9-24c0.6-0.4,1.1-0.8,1.7-1.3l-1.1-1.5c-0.6,0.4-1.1,0.8-1.7,1.3C343.4,528,333.7,536.1,324.4,544.7z
	 M388.5,497.2l1,1.6c10.9-6.6,22.6-13.1,34.8-19.2l-0.9-1.7C411.2,484,399.4,490.5,388.5,497.2z M459.5,460.9l0.7,1.7
	c11.8-5.1,24.2-10.2,36.9-14.9l-0.7-1.7C483.7,450.7,471.3,455.7,459.5,460.9L459.5,460.9z M534.1,432.8l0.6,1.8
	c3.3-1.1,6.6-2.1,10-3.2c9.2-2.9,18.6-5.7,28.1-8.3l-0.5-1.8c-9.5,2.7-19,5.5-28.2,8.3C540.7,430.6,537.4,431.7,534.1,432.8
	L534.1,432.8z M622.5,408.4c-3.9,0.9-7.9,1.8-11.7,2.8l0.4,1.8c3.9-0.9,7.8-1.9,11.7-2.8c3.7-0.9,7.4-1.7,11-2.5
	c5.3-1.2,10.8-2.4,16.1-3.5l-0.4-1.8c-5.4,1.1-10.8,2.3-16.2,3.5C630,406.7,626.3,407.5,622.5,408.4L622.5,408.4z M688.9,395
	l0.3,1.8c12.9-2.3,26.1-4.4,39.3-6.3l-0.3-1.9C715,390.6,701.8,392.7,688.9,395z M767.8,383.5l0.2,1.9c13-1.5,26.4-2.9,39.6-4.1
	l-0.2-1.9C794.2,380.6,780.8,382,767.8,383.5z M847.2,376.4l0.1,1.9c13.1-0.8,26.5-1.5,39.8-2l-0.1-1.9
	C873.7,374.9,860.3,375.6,847.2,376.4L847.2,376.4z"/>
<path class="st3" d="M472.5,521.1c82.7-61.5,237.8-102.9,415.5-102.9v204.9H409C409,586,432.1,551.1,472.5,521.1z"/>
<path class="st6" d="M117.7,434l176.4,43.3l178.3,43.8l415.5,102H0C0,554.2,42.8,489.7,117.7,434z"/>
<polygon class="st7" points="225,394.7 219,394.7 216.1,371.6 225,371.6 "/>
<path class="st8" d="M226.5,400.5l-19.3,0v-0.2c0-4.2,3.4-7.5,7.5-7.5h0l11.8,0L226.5,400.5z"/>
<polygon class="st7" points="278,390.3 272.2,391.9 263.4,370.3 272,368 "/>
<path class="st8" d="M280.9,395.5l-18.7,5l-0.1-0.2c-1.1-4,1.3-8.1,5.3-9.2l0,0l11.4-3.1L280.9,395.5z"/>
<path class="st8" d="M200,287.5c-3.5,4.5,7.4,41.6,7.9,42.1s-0.5,3.5-0.5,3.5c0,0.5,0.2,1.1,0.5,1.5c0.5,0.5,0,1,0,2s0,1,1,3
	c0.6,1.4,0.8,3,0.5,4.5l6.4,37.6c-1,0.4-1.6,1.4-1.5,2.5c0,2,9.9,3,13.4,2.5s-2.5-44.6-2.5-44.6s0-11.4,1-12.4s0-1,0-3s-1.5-5-1-6.4
	s1-22.8,1-22.8s11.4,21.3,11.4,24.3s3.5,7.9,3.5,7.9l22.8,46.5c0,0-1.5,3,0,5.4s7.9,0.5,14.4-2s-2.5-6.4-2.5-6.4l-13.9-39.5
	c0-1.5,0.2-3,0.5-4.5c0.5-2.5-1.5-1.5-3-2.5s-1-1,0-3s-1.5-6.4-1.5-6.4l-6.4-36.6C251.5,280.5,203.5,283,200,287.5z"/>
<circle class="st9" cx="216" cy="185.4" r="12.9"/>
<path class="st4" d="M211.2,202.2c0,0-17.6,8-19,12s9.4,40.6,9.4,40.6s0.7,15.4-1.3,21.4s-1.6,6.9-1.6,6.9v4.5
	c0,2.5,15.8,0.5,23.8-2c7.9-2.5,28.2-2,30.2-2.5c2-0.5-3.3-6.9-3.3-6.9c6.9-0.5,0-15,0-15s-0.7-47-2.7-53.4s-20.3-7.6-20.3-7.6
	l-9.3,3.2L211.2,202.2z"/>
<path class="st8" d="M231.6,182c0.7-3.2,0-6.6-1.8-9.3c-2.1-3.3-5.6-5.5-9.4-6.1c-3.8-0.5-7.6,0.1-11,1.9c-2.1,1-4.3,2.4-6.4,1.6
	l0.6,1.1l-1.6,0l0.6,1.3l-1.5,0.2l1.2,0.7c-1.6,2.8-2.6,5.9-3.1,9.1c-0.3,1.3-0.2,2.6,0.3,3.8c0.6,1.1,2.1,1.8,3,1
	c0.6-0.5,0.8-1.3,1.2-2s1.4-1.1,1.9-0.5l1.3-2.6l1,0.8c2.5-2.2,5.4-3.9,8.5-5c0.8-0.4,1.7-0.4,2.5-0.1c1.2,0.7,1,2.6,1.8,3.8
	c1.3,1.9,4.5,1.1,5.7,3c0.4,0.8,0.6,1.6,0.7,2.4c0.2,0.8,0.8,1.7,1.5,1.7C230.2,187.2,230.8,184.8,231.6,182z"/>
<path class="st9" d="M262.6,284.2c-2.5-1.7-3.1-5.1-1.5-7.5c0.2-0.3,0.4-0.5,0.6-0.7l-8.7-17.2l10,1.2l6.7,16.2
	c2,2.2,1.8,5.7-0.4,7.7C267.5,285.4,264.7,285.6,262.6,284.2L262.6,284.2z"/>
<path class="st4" d="M255.5,271.8l-10.1-32.7l-11.5-25c-1.8-3.8-0.1-8.4,3.7-10.2c0.6-0.3,1.1-0.4,1.7-0.6l0,0
	c3.7-0.7,7.4,1.4,8.7,5l21,59.9c0.4,1.3-0.2,2.7-1.5,3.1c-0.1,0-0.2,0.1-0.3,0.1l-9,1.9c-0.2,0-0.3,0.1-0.5,0.1
	C256.8,273.5,255.8,272.8,255.5,271.8z"/>
<path class="st9" d="M193.2,295.5c2.1-2.2,2-5.6-0.2-7.7c-0.2-0.2-0.5-0.4-0.8-0.6l4.7-18.7l-9.5,3.3l-3,17.3
	c-1.5,2.6-0.5,6,2.1,7.4C188.7,297.7,191.4,297.3,193.2,295.5z"/>
<path class="st4" d="M195.5,284c-0.2,0-0.3,0.1-0.5,0.1l-9.2,0.1c-1.3,0-2.4-1.1-2.5-2.4c0-0.1,0-0.2,0-0.3l7.4-63.1
	c0.5-3.8,3.6-6.6,7.4-6.8l0,0c4.2-0.1,7.8,3.2,7.9,7.4c0,0.6,0,1.2-0.2,1.8l-5.8,26.9l-2.7,34.1C197.3,282.9,196.6,283.8,195.5,284z
	"/>
</svg>
