<?xml version="1.0" encoding="utf-8"?>
<!-- Generator: Adobe Illustrator 26.3.1, SVG Export Plug-In . SVG Version: 6.00 Build 0)  -->
<svg version="1.1" id="レイヤー_1" xmlns="http://www.w3.org/2000/svg" xmlns:xlink="http://www.w3.org/1999/xlink" x="0px"
	 y="0px" viewBox="0 0 643 699.6" style="enable-background:new 0 0 643 699.6;" xml:space="preserve">
<style type="text/css">
	.st0{fill:#6C63FF;}
	.st1{fill:#BB83CC;}
	.st2{fill:#FCB4B4;}
	.st3{fill:#2F2E41;}
	.st4{opacity:0.1;enable-background:new    ;}
	.st5{fill:#FFB6B6;}
	.st6{fill:#3F3D56;}
</style>
<path class="st0" d="M526.4,329.6c19.9,12.8,38.5,30,56,51.2v32.4c-8.5-2.9-41-14.9-53.9-33.9c-14.8-22-17.5-55.3-5.1-63.7
	c3.2-2.2,7.1-2.4,11.4-1.2c13.5,9.7,26.5,21.5,38.8,35.3c4.4,6.7,7.1,15.3,8.8,24v0.4C566.4,351.8,547.6,337.3,526.4,329.6z"/>
<path class="st0" d="M525.4,130.6c19.9,12.8,38.5,30,56,51.2v7.4c-1.7-0.6-4.2-1.5-7.4-2.7c-14.3-16.9-30.6-28.3-48.6-34.9
	c12.6,8.1,24.7,18,36.3,29.5c-12.3-5.9-26.6-14.7-34.2-25.8c-0.8-1.2-1.6-2.4-2.3-3.6c-12.7-21.1-13.5-44.2-1.8-52.1
	c12.4-8.4,34,3.5,48.9,25.4c8.6,12.7,11,32.4,11.5,46.8c-0.8,1-1.6,2.1-2.3,3.2C565.4,152.8,546.6,138.3,525.4,130.6z"/>
<path class="st0" d="M638.6,248.8L638.6,248.8c-1.4,3.9-3.2,7.9-5.3,11.8c-3.1,5.8-8,11.2-13.5,16c-5.9,5.2-12.5,9.7-18.6,13.4
	c-8.5,5.1-16,8.6-18.9,9.9v-3.1c16.9-20.1,34.8-36.5,54-48.8c-20.3,7.4-38.4,21-54,41.7v-13.9c16.9-20.1,34.8-36.5,54-48.8
	c-20.3,7.4-38.4,21-54,41.7v-13.9c16.7-19.8,34.4-36,53.2-48.3C644.4,213.7,645.2,230.8,638.6,248.8z"/>
<circle class="st1" cx="143.7" cy="245.5" r="143.7"/>
<path id="uuid-6b4a4d5d-b113-464e-95c4-a63f7642af13-868" class="st2" d="M593.9,475.9c12.1,10.2,16.6,24.7,10.1,32.4
	c-6.5,7.7-21.5,5.7-33.6-4.5c-4.9-4-8.7-9.1-11.2-14.9l-50.7-43.8l21.1-23.3l47.7,45.6C583.4,468.8,589.1,471.8,593.9,475.9
	L593.9,475.9z"/>
<polygon class="st3" points="553,443.5 491,364 432.4,256.6 430.8,405.5 518.8,477.7 "/>
<polygon class="st2" points="283.6,224.6 297.7,160.1 345.2,162.4 357.3,209.2 "/>
<polygon class="st4" points="283.6,224.6 297.7,160.1 345.2,162.4 357.3,209.2 "/>
<circle class="st2" cx="320.3" cy="124.3" r="53.1"/>
<path class="st3" d="M296.5,144.8L296.5,144.8c0,0-5.4-0.1-16.5-2.1c-11.1-2.1,8.2,24,8.2,24c-52.4-21.9-35.6-77.4-35.6-77.4
	c-53.2-10.2-30.9-57.5-30.9-57.5s17.5-33.8,71.5-31.7s28.4,55.3,28.4,55.3c35.1,0.1,39.1,31.7,39.1,31.7S348,88.7,325,94.6
	C302,100.4,296.5,144.8,296.5,144.8L296.5,144.8L296.5,144.8L296.5,144.8z"/>
<path class="st5" d="M294.4,204.3l-2.4-4.7c0,0-42.7,4.9-49.7,11.5s-23,35.5-23,35.5l35,30L294.4,204.3z"/>
<path class="st5" d="M347.4,203.2c0,0,32-8.5,50,9.5s39,51,39,51l-1,26l-50-24.1L347.4,203.2L347.4,203.2z"/>
<path class="st3" d="M355.5,199.6c0,0,41.8-15,68.8,17s35,133,35,133s61,187,46,189s-106.5,7.5-106.5,7.5l-31.5-203.5l-14-143H355.5
	z"/>
<path class="st2" d="M259.4,379.6l-10,36l136,10c0,0-5-30.1,0-41L259.4,379.6z"/>
<polygon class="st2" points="336.4,613.6 342.4,699.6 417.9,697.6 415.4,610.6 "/>
<polygon class="st2" points="218.5,605.1 196.4,698.6 275.4,698.1 295.6,621.7 "/>
<path class="st0" d="M353.4,199.6H292l-49.7,66l11,135c0,0,25-7,60-7h75c0,0-11-35,3-49s4-79,4-79L353.4,199.6z"/>
<path class="st3" d="M244.4,404.6l-56,203c0,0,82.5,33.1,132.2,23.6s117.8-12.6,117.8-12.6l-48-206L244.4,404.6L244.4,404.6z"/>
<path id="uuid-dda76ffd-f581-4aef-8961-053e5e9dc1b0-869" class="st2" d="M373.9,478.9c12.1,10.2,16.6,24.7,10.1,32.4
	c-6.5,7.7-21.5,5.7-33.6-4.5c-4.9-4-8.7-9.1-11.2-14.9l-50.7-43.8l21.1-23.3l47.7,45.6C363.4,471.8,369.1,474.8,373.9,478.9z"/>
<polygon class="st3" points="343,443.5 281,364 222.4,256.6 220.8,405.5 308.8,477.7 "/>
<path class="st3" d="M296.2,199.6c0,0-41.8-15-68.8,17s-35,133-35,133s-61,187-46,189s106.5,7.5,106.5,7.5l31.5-203.5l14-143H296.2z
	"/>
<rect x="581.4" y="161.6" class="st6" width="2" height="348"/>
<path class="st0" d="M27.4,518.6c19.9,12.8,38.5,30,56,51.2v32.4c-8.5-2.9-41-14.9-53.9-33.9c-14.8-22-17.5-55.3-5.1-63.7
	c3.2-2.2,7.1-2.4,11.4-1.2c13.5,9.7,26.5,21.5,38.8,35.3c4.4,6.7,7.1,15.3,8.8,24v0.4C67.4,540.8,48.6,526.3,27.4,518.6z"/>
<path class="st0" d="M26.4,319.6c19.9,12.8,38.5,30,56,51.2v7.4c-1.7-0.6-4.2-1.5-7.4-2.7c-14.3-16.9-30.6-28.3-48.6-34.9
	c12.6,8.1,24.7,18,36.3,29.5c-12.3-5.9-26.6-14.7-34.2-25.8c-0.8-1.2-1.6-2.4-2.3-3.6c-12.7-21.1-13.5-44.2-1.8-52.1
	c12.4-8.4,34,3.5,48.9,25.4c8.6,12.7,11,32.4,11.5,46.8c-0.8,1-1.6,2.1-2.3,3.2C66.4,341.8,47.6,327.3,26.4,319.6z"/>
<path class="st0" d="M139.6,437.8L139.6,437.8c-1.4,3.9-3.2,7.9-5.3,11.8c-3.1,5.8-8,11.2-13.5,16c-5.9,5.2-12.5,9.7-18.6,13.4
	c-8.5,5.1-16,8.6-18.9,9.9v-3.1c16.9-20.1,34.8-36.5,54-48.8c-20.3,7.4-38.4,21-54,41.7v-13.9c16.9-20.1,34.8-36.5,54-48.8
	c-20.3,7.4-38.4,21-54,41.7v-13.9c16.7-19.8,34.4-36,53.2-48.3C145.4,402.7,146.2,419.8,139.6,437.8z"/>
<rect x="82.4" y="350.6" class="st6" width="2" height="348"/>
</svg>
